<svg xmlns="http://www.w3.org/2000/svg" width="840.4" height="510.1"><g fill="#272727" stroke="#262626" stroke-linecap="round" stroke-linejoin="round"><g stroke-width="42" transform="translate(44.453 10.55) scale(.0379)"><circle r=".7" cy="2282" cx="1482"/><path d="M1480.5 2281.6h2.2M1481.6 2280.5v2.2"/><circle r=".7" cy="2282" cx="1482"/><path d="M1480.5 2281.6h2.2M1481.6 2280.5v2.2"/><circle r=".7" cy="2282" cx="1482"/><path d="M1480.5 2281.6h2.2M1481.6 2280.5v2.2"/><circle r=".7" cy="2282" cx="2015.3"/><path d="M2014 2281.6h2M2015 2280.5v2.2"/><circle r=".7" cy="2282" cx="1482"/><path d="M1480.5 2281.6h2.2M1481.6 2280.5v2.2"/><circle r=".7" cy="2282" cx="1482"/><path d="M1480.5 2281.6h2.2M1481.6 2280.5v2.2"/><circle r=".7" cy="2282" cx="1482"/><path d="M1480.5 2281.6h2.2M1481.6 2280.5v2.2"/><circle r=".7" cy="2282" cx="2548.7"/><path d="M2547.2 2281.6h2M2548.3 2280.5v2.2"/><circle r=".7" cy="2282" cx="2548.7"/><path d="M2547.2 2281.6h2M2548.3 2280.5v2.2"/></g><g stroke-width="39.4" fill-rule="evenodd"><path d="M481.6 281.7h5.3v10.5h-5.4v-10.5M481.6 257.5h5.3V268h-5.4v-10.5M494.3 281.7h5.3v10.5h-5.3v-10.5M494.3 257.5h5.3V268h-5.3v-10.5M469 281.7h5.2v10.5H469v-10.5M507 281.7h5.3v10.5H507v-10.5M507 257.5h5.3V268H507v-10.5M469 257.5h5.2V268H469v-10.5M519.8 281.7h5.3v10.5H520v-10.5M532.5 281.7h5.3v10.5h-5.3v-10.5M443.4 281.7h5.3v10.5h-5.3v-10.5M456.2 281.7h5.2v10.5h-5.2v-10.5M456.2 257.5h5.2V268h-5.2v-10.5M443.4 257.5h5.3V268h-5.3v-10.5M532.5 257.5h5.3V268h-5.3v-10.5M519.8 257.5h5.3V268H520v-10.5M340.2 281.7h5.2v10.5h-5.2v-10.5M340.2 257.5h5.2V268h-5.2v-10.5M353 281.7h5v10.5h-5v-10.5M353 257.5h5V268h-5v-10.5M327.5 281.7h5.2v10.5h-5.2v-10.5M365.6 281.7h5.3v10.5h-5.4v-10.5M365.6 257.5h5.3V268h-5.4v-10.5M327.5 257.5h5.2V268h-5.2v-10.5M378.3 281.7h5.3v10.5h-5.3v-10.5M391 281.7h5.3v10.5H391v-10.5M302 281.7h5.2v10.5H302v-10.5M314.7 281.7h5.3v10.5h-5.3v-10.5M314.7 257.5h5.3V268h-5.3v-10.5M302 257.5h5.2V268H302v-10.5M391 257.5h5.3V268H391v-10.5M378.3 257.5h5.3V268h-5.3v-10.5M639 156.5v-5.3h10.5v5.3H639M614.7 156.5v-5.3h10.5v5.3h-10.5M639 143.8v-5.2h10.5v5.2H639M614.7 143.8v-5.2h10.5v5.2h-10.5M639 169.2V164h10.5v5.2H639M639 131V126h10.5v5.3H639M614.7 131V126h10.5v5.3h-10.5M614.7 169.2V164h10.5v5.2h-10.5M211 138.6v5.2h-10.6v-5.2H211M235.2 138.6v5.2h-10.5v-5.2h10.5M211 151.2v5.3h-10.6v-5.3H211M235.2 151.2v5.3h-10.5v-5.3h10.5M211 125.8v5.3h-10.6V126H211M211 164v5.2h-10.6V164H211M235.2 164v5.2h-10.5V164h10.5M235.2 125.8v5.3h-10.5V126h10.5M647 223v-17.5h17.5V223H647M680.5 223v-17.5H698V223h-17.5M465.2 465.4V448h17.5v17.4h-17.5M498.6 465.4V448H516v17.4h-17.4M465.2 404.8v-17.4h17.5v17.4h-17.5M498.6 404.8v-17.4H516v17.4h-17.4M465.2 344.2v-17.5h17.5v17.5h-17.5M498.6 344.2v-17.5H516v17.5h-17.4M525.8 344.2v-17.5h17.5v17.5h-17.5M559.2 344.2v-17.5h17.5v17.5h-17.5M586.4 344.2v-17.5H604v17.5h-17.6M619.8 344.2v-17.5h17.5v17.5h-17.5M586.4 283.6V266H604v17.6h-17.6M619.8 283.6V266h17.5v17.6h-17.5M586.4 223v-17.5H604V223h-17.6M619.8 223v-17.5h17.5V223h-17.5M374.6 448v17.4H357V448h17.6M341.2 448v17.4h-17.5V448h17.5M707.7 223v-17.5h17.5V223h-17.5M741 223v-17.5h17.5V223H741M707.7 162.3V145h17.5v17.3h-17.5M741 162.3V145h17.5v17.3H741M132 145v17.3h-17.4V145H132M98.7 145v17.3H81.2V145h17.5M132 205.5V223h-17.4v-17.5H132M98.7 205.5V223H81.2v-17.5h17.5M192.7 205.5V223h-17.5v-17.5h17.5M159.3 205.5V223H142v-17.5h17.3M253.3 205.5V223H236v-17.5h17.3M220 205.5V223h-17.5v-17.5H220M253.3 266v17.6H236V266h17.3M220 266v17.6h-17.5V266H220M253.3 326.7v17.5H236v-17.5h17.3M220 326.7v17.5h-17.5v-17.5H220M314 326.7v17.5h-17.5v-17.5H314M280.6 326.7v17.5H263v-17.5h17.6M374.6 326.7v17.5H357v-17.5h17.6M341.2 326.7v17.5h-17.5v-17.5h17.5M374.6 387.4v17.4H357v-17.4h17.6M341.2 387.4v17.4h-17.5v-17.4h17.5M132 84.2v17.5h-17.4V84.2H132M98.7 84.2v17.5H81.2V84.2h17.5M81.2 465.4V448h17.5v17.4H81.2M114.6 465.4V448H132v17.4h-17.4M707.7 101.7V84.2h17.5v17.5h-17.5M741 101.7V84.2h17.5v17.5H741M758.5 448v17.4H741V448h17.5M725.2 448v17.4h-17.5V448h17.5M417.5 51.7V29h4.8v22.7h-4.8M404.7 51.7V29h5v22.7h-5M392 51.7V29h4.8v22.7H392M379.3 51.7V29h4.8v22.7h-4.7M366.5 51.7V29h5v22.7h-5M353.8 51.7V29h5v22.7h-5M430.2 51.7V29h4.8v22.7h-4.8M443 51.7V29h4.8v22.7h-5M455.7 51.7V29h4.8v22.7h-4.8M468.4 51.7V29h4.8v22.7h-4.8M481 51.7V29h5v22.7h-5M417.5 233.6V211h4.8v22.6h-4.8M404.7 233.6V211h5v22.6h-5M392 233.6V211h4.8v22.6H392M379.3 233.6V211h4.8v22.6h-4.7M366.5 233.6V211h5v22.6h-5M353.8 233.6V211h5v22.6h-5M430.2 233.6V211h4.8v22.6h-4.8M443 233.6V211h4.8v22.6h-5M455.7 233.6V211h4.8v22.6h-4.8M468.4 233.6V211h4.8v22.6h-4.8M481 233.6V211h5v22.6h-5M317.6 133.8v-5h22.7v5h-22.7M499.5 133.8v-5H522v5h-22.5M317.6 146.5v-4.8h22.7v4.8h-22.7M499.5 146.5v-4.8H522v4.8h-22.5M499.5 159.2v-4.8H522v4.8h-22.5M317.6 159.2v-4.8h22.7v4.8h-22.7M317.6 172v-5h22.7v5h-22.7M499.5 172v-5H522v5h-22.5M499.5 184.7V180H522v4.7h-22.5M317.6 184.7V180h22.7v4.7h-22.7M317.6 197.4v-4.8h22.7v4.8h-22.7M499.5 197.4v-4.8H522v4.8h-22.5M499.5 121v-4.8H522v5h-22.5M317.6 121v-4.8h22.7v5h-22.7M317.6 108.3v-4.8h22.7v4.8h-22.7M499.5 108.3v-4.8H522v4.8h-22.5M499.5 95.6v-5H522v5h-22.5M317.6 95.6v-5h22.7v5h-22.7M317.6 83v-5h22.7v5h-22.7M499.5 83v-5H522v5h-22.5M499.5 70v-4.7H522V70h-22.5M317.6 70v-4.7h22.7V70h-22.7" stroke-width="1.5925479999999999"/></g><g stroke-width="64"><path d="M432.7 222.3V477M329 157h103.7M511 106h-78.3M432.7 222.3V157M432.7 157v-51M432.7 106V40.3" stroke-width="2.4256"/></g><g stroke-width="256"><path d="M90 214.3l24.2 24.2M114.2 238.5h36.4M568 335.5l-.5.6M567.5 336v32M507.4 361.8v6M628.7 335.5L596.4 368M596.4 368h-29M567.5 368h-60M332.5 456.8l20.2 20.2M352.7 477h80M487.2 477l20.2-20.2M432.7 477h54.5M750 153.6V93M750 214.3v-60.7" stroke-width="9.7024"/></g><path d="M689.3 214.3l-.5.5" stroke-width="2.4256"/><g stroke-width="256"><path d="M688.8 214.8v21.7M750 214.3l-24.3 24.2M725.7 238.5h-97M628.7 335.5V275M628.7 275v-36.5M628.7 238.5v-24.2" stroke-width="9.7024"/></g><path d="M568 335.5l-2.5 2.6" stroke-width="2.4256"/><g stroke-width="256"><path d="M507.4 396.2V368M507.4 361.8v-26.3M507.4 456.8v-60.6" stroke-width="9.7024"/></g><g stroke-width="64"><path d="M716.6 456.8H507.4M123.4 456.8h209" stroke-width="2.4256"/></g><path d="M332.5 396.2v60.6" stroke-width="9.7024"/><path d="M272 335.5l.4.6" stroke-width="2.4256"/><path d="M272.4 336v32" stroke-width="9.7024"/><path d="M332.5 335.5L331 337" stroke-width="2.4256"/><g stroke-width="256"><path d="M331 337v31M211.3 275v60.5" stroke-width="9.7024"/></g><g stroke-width="64"><path d="M211.3 335.5h.5M331 394.7l1.5 1.5" stroke-width="2.4256"/></g><g stroke-width="256"><path d="M331 368v26.7M244 368h28.4M272.4 368H331M211.8 335.5L244 368M150.6 214.3v24.2" stroke-width="9.7024"/></g><path d="M150.6 238.5h.5" stroke-width="2.4256"/><path d="M151 238.5h60.6" stroke-width="9.7024"/><path d="M211.6 238.5l-.5.5" stroke-width="2.4256"/><g stroke-width="256"><path d="M211.3 214.3L211 239M211 239l.3 36M90 153.6v60.7M90 93v60.6" stroke-width="9.7024"/></g><g stroke-width="64"><path d="M716.6 93v16.7M685 141.2h-40.7M716.6 109.7L685 141.2M394.5 222.3l-.7.8M393.8 223V263M393.8 262.8l.7-.8M769.7 440.6l-16.2 16.2M653.3 128.5L709 72.8M709 72.8h56.6M765.6 72.8l14.2 14M779.8 87v343.5M779.8 430.5l-10 10M644.3 128.5h9M753.5 456.8H750" stroke-width="2.4256"/></g><path d="M366 335.5l2.3-2.3" stroke-width="4.0439300000000005"/><g stroke-width="64"><path d="M368.3 333.2V287M366 396.2l15-15M381 381v-94M534.7 335.5l-14.2-14M484.4 311v-24M494.8 321.4L484.4 311M520.5 321.4h-25.7M474 456.8L446.2 429M446.2 429V287M366 456.8l27.8-27.8M393.8 429V287M184 214.3v-8.7M284.5 287h20.2M264.3 266.8l20.2 20.2M264.3 206.2v60.6M258.3 200l6 6.2M189.5 200h68.8M184 205.6l5.5-5.5M125 200l33.3-33.4M158.3 166.6h47.4M125 210.2v-10M125 200v-.4M90 456.8L66.2 433M196.7 128.5h9M141 72.8l55.7 55.7M76.3 72.8H141M66.2 83l10-10.2M66.2 433V83M595.3 335.5V327M497 307.5V287M505 315.3l-8-7.8M583.7 315.3H505M595.3 327l-11.6-11.7M474 335.5l-2.4-2.3M471.6 333.2V287M474 396.2l-15-15M459 381v-94M123.4 153.6l.2.3M123.6 154h82M244.6 214.3l13.7 13.6M317.4 298.6V287M312.8 303.2l4.6-4.6M263 303.2H313M258.3 298.3l4.8 5M258.3 228v70.3M244.6 275v23M330 302v-15M323 309.3l7-7.2M255.8 309.3H323M244.6 298l11.2 11.3M244.6 335.5V325M343 307.5V287M336 314.5l7-7M255 314.5h81M244.6 325l10.4-10.5M305.3 335.5V327M355.6 313v-26M349.2 319.4l6.4-6.4M312.8 319.4h36.4M305.3 327l7.5-7.6M541.3 232.5l-18.8 18.7M541.3 232.5v-58.7M541.3 173.8l-17-17M511 157h13.3M522.5 251.2v11.6M510 251.7h-.2M509.8 251.8v11M511 169.6h12M535.2 226.4L510 251.7M535.2 182v44.4M523 169.6L535 182M205.7 141.2H159M123.4 105.6V93M159 141.2l-35.6-35.6M497 262.8v-12.4M497 250.4l32-32M529 218.3V188M529 188l-5.5-5.7M523.5 182.3H511M484.7 248.6l-.3.3M484.4 249v13.8M511 222.3V195M484.7 248.6l26.2-26.3M511 80.4h13.7M585.4 141.2H620M524.7 80.4l60.7 60.8M511 131.4h40.4M586.6 166.6H620M551.4 131.4l35.2 35.2M620 154h-34M550.8 118.7h-40M586 154l-35.2-35.3M471.6 262.8v-13.3M483.6 237.5l-12 12M483.6 237.5v-15.2M511 67.7h13M584.8 128.5H620M524 67.7l60.8 60.8M535.3 262.8v-12.2M521.6 144l25.7 25.8M547.3 169.8v68.7M547.3 238.5l-12 12M521.6 144H511M330 223.5v39.3M329 182.3h-14.5M312.8 206.2l17.2 17.2M312.8 184V206M314.5 182.3l-1.7 1.6M329 106h-41.2M239.8 154H230M287.8 106l-48 48M644.3 154h72M716.3 154l.3-.4M230 166.6h9.2M287.2 118.7H329M239.2 166.6l48-48M304.7 262.8v-44.6M296.7 147.6v62.6M296.7 210.2l4 4M312.8 131.4H329M300.7 143.5l12-12M304.7 218.2l-4-4M300.7 143.5l-4 4M317.4 262.8v-42M304.8 208.2v-54.6M304.8 153.6l2-2M314.3 144H329M306.8 151.6l7.5-7.5M317.4 220.8l-10.6-10.6M306.8 210.2l-2-2M343 262.8V226M343 226l-14-13.8M329 212.2v-17M355.6 262.8l.7-.8M356.3 262v-39.7M369 222.3l-.7.8M368.3 223V263M368.3 262.8l.7-.8M446.2 248.7v14M458.2 236.7v-14.4M446.3 248.6l12-12M459 262.8V250M459 250l12-12M471 238v-15.7M230 128.5h9M287 80.4h42M239 128.5l48-48M230 141.2h10.4M288.4 93.2H329M240.4 141.2l48-48M716.6 214.3v-18.8M687.7 166.6h-43.4M716.6 195.5l-29-29M656 214.3v-10.7M561.5 287h-26.2M574.8 273.7L561.5 287M574.8 205v68.7M579.7 200l-5 5M652.4 200h-72.7M656 203.6l-3.6-3.5M595.3 214.3L579.7 230M522.5 298.6V287M527 303.2l-4.5-4.6M569.6 303.2H527M579.7 293l-10 10.2M579.7 230v63M595.3 275v20.6M509.8 304v-17M515 309.3l-5.2-5.2M581.7 309.3H515M595.3 295.6l-13.6 13.7M381 262.8l.8-.8M381.8 262v-39.7" stroke-width="2.4256"/></g></g><g fill="none" stroke="#e70000" stroke-width="21.5" stroke-linecap="square" stroke-linejoin="round"><path d="M107.5 94.3v121h121v121h121v121H50M733 94.3v121H612v121H491v121h299.3"/></g></svg>