<svg xmlns="http://www.w3.org/2000/svg" viewBox="0 0 761.63198 453.51434" height="45.4" width="76.2"><g fill="#272727" stroke="#262626" stroke-linecap="round" stroke-linejoin="round"><g stroke-width="42" transform="translate(5.046 -17.756) scale(.0379)"><circle cx="1482" cy="2282" r=".7"/><path d="M1480.5 2281.6h2.2M1481.6 2280.5v2.2"/><circle cx="1482" cy="2282" r=".7"/><path d="M1480.5 2281.6h2.2M1481.6 2280.5v2.2"/><circle cx="1482" cy="2282" r=".7"/><path d="M1480.5 2281.6h2.2M1481.6 2280.5v2.2"/><circle cx="2015.3" cy="2282" r=".7"/><path d="M2014 2281.6h2M2015 2280.5v2.2"/><circle cx="1482" cy="2282" r=".7"/><path d="M1480.5 2281.6h2.2M1481.6 2280.5v2.2"/><circle cx="1482" cy="2282" r=".7"/><path d="M1480.5 2281.6h2.2M1481.6 2280.5v2.2"/><circle cx="1482" cy="2282" r=".7"/><path d="M1480.5 2281.6h2.2M1481.6 2280.5v2.2"/><circle cx="2548.7" cy="2282" r=".7"/><path d="M2547.2 2281.6h2M2548.3 2280.5v2.2"/><circle cx="2548.7" cy="2282" r=".7"/><path d="M2547.2 2281.6h2M2548.3 2280.5v2.2"/></g><g stroke-width="39.4" fill-rule="evenodd"><path d="M442.2 253.4h5.3V264h-5.3v-10.6M442.2 229.2h5.3v10.5h-5.3v-10.5M455 253.4h5.2V264H455v-10.6M455 229.2h5.2v10.5H455v-10.5M429.5 253.4h5.3V264h-5.3v-10.6M467.7 253.4h5.2V264h-5.3v-10.6M467.7 229.2h5.2v10.5h-5.3v-10.5M429.5 229.2h5.3v10.5h-5.3v-10.5M480.4 253.4h5.2V264h-5.2v-10.6M493 253.4h5.4V264H493v-10.6M404 253.4h5.3V264H404v-10.6M416.8 253.4h5.2V264h-5.2v-10.6M416.8 229.2h5.2v10.5h-5.2v-10.5M404 229.2h5.3v10.5H404v-10.5M493 229.2h5.4v10.5H493v-10.5M480.4 229.2h5.2v10.5h-5.2v-10.5M300.8 253.4h5.2V264h-5.2v-10.6M300.8 229.2h5.2v10.5h-5.2v-10.5M313.5 253.4h5.2V264h-5.2v-10.6M313.5 229.2h5.2v10.5h-5.2v-10.5M288 253.4h5.3V264H288v-10.6M326.2 253.4h5.3V264h-5.3v-10.6M326.2 229.2h5.3v10.5h-5.3v-10.5M288 229.2h5.3v10.5H288v-10.5M339 253.4h5.2V264H339v-10.6M351.7 253.4h5.2V264h-5.3v-10.6M262.6 253.4h5.2V264h-5.2v-10.6M275.3 253.4h5.3V264h-5.3v-10.6M275.3 229.2h5.3v10.5h-5.3v-10.5M262.6 229.2h5.2v10.5h-5.2v-10.5M351.7 229.2h5.2v10.5h-5.3v-10.5M339 229.2h5.2v10.5H339v-10.5M599.5 128.2V123H610v5.2h-10.5M575.3 128.2V123h10.5v5.2h-10.5M599.5 115.5v-5.3H610v5.3h-10.5M575.3 115.5v-5.3h10.5v5.3h-10.5M599.5 141v-5.3H610v5.2h-10.5M599.5 102.8v-5.3H610v5.3h-10.5M575.3 102.8v-5.3h10.5v5.3h-10.5M575.3 141v-5.3h10.5v5.2h-10.5M171.5 110.2v5.3H161v-5.3h10.5M195.8 110.2v5.3h-10.5v-5.3h10.5M171.5 123v5.2H161V123h10.5M195.8 123v5.2h-10.5V123h10.5M171.5 97.5v5.3H161v-5.3h10.5M171.5 135.7v5.2H161v-5.3h10.5M195.8 135.7v5.2h-10.5v-5.3h10.5M195.8 97.5v5.3h-10.5v-5.3h10.5M607.7 194.6v-17.4H625v17.4h-17.3M641 194.6v-17.4h17.5v17.4H641M425.8 437v-17.3h17.4V437h-17.4M459.2 437v-17.3h17.4V437h-17.4M425.8 376.5V359h17.4v17.5h-17.4M459.2 376.5V359h17.4v17.5h-17.4M425.8 316v-17.6h17.4V316h-17.4M459.2 316v-17.6h17.4V316h-17.4M486.4 316v-17.6H504V316h-17.6M519.8 316v-17.6h17.5V316h-17.5M547 316v-17.6h17.5V316H547M580.4 316v-17.6H598V316h-17.6M547 255.3v-17.5h17.5v17.5H547M580.4 255.3v-17.5H598v17.5h-17.6M547 194.6v-17.4h17.5v17.4H547M580.4 194.6v-17.4H598v17.4h-17.6M335.2 419.7V437h-17.5v-17.3h17.5M301.8 419.7V437h-17.5v-17.3h17.5M668.3 194.6v-17.4h17.4v17.4h-17.4M701.7 194.6v-17.4H719v17.4h-17.3M668.3 134v-17.5h17.4V134h-17.4M701.7 134v-17.5H719V134h-17.3M92.7 116.5V134H75.2v-17.5h17.5M59.3 116.5V134H41.8v-17.5h17.5M92.7 177.2v17.4H75.2v-17.4h17.5M59.3 177.2v17.4H41.8v-17.4h17.5M153.3 177.2v17.4h-17.5v-17.4h17.5M120 177.2v17.4h-17.5v-17.4H120M214 177.2v17.4h-17.5v-17.4H214M180.5 177.2v17.4H163v-17.4h17.5M214 237.8v17.5h-17.5v-17.5H214M180.5 237.8v17.5H163v-17.5h17.5M214 298.4V316h-17.5v-17.6H214M180.5 298.4V316H163v-17.6h17.5M274.5 298.4V316H257v-17.6h17.5M241.2 298.4V316h-17.5v-17.6h17.5M335.2 298.4V316h-17.5v-17.6h17.5M301.8 298.4V316h-17.5v-17.6h17.5M335.2 359v17.5h-17.5V359h17.5M301.8 359v17.5h-17.5V359h17.5M92.7 56v17.4H75.2V56h17.5M59.3 56v17.4H41.8V56h17.5M41.8 437v-17.3h17.5V437H41.8M75.2 437v-17.3h17.5V437H75.2M668.3 73.4V56h17.4v17.4h-17.4M701.7 73.4V56H719v17.4h-17.3M719 419.7V437h-17.3v-17.3H719M685.7 419.7V437h-17.4v-17.3h17.4M378 23.4V.8h5v22.6h-5M365.3 23.4V.8h5v22.6h-5M352.6 23.4V.8h4.8v22.6h-4.8M340 23.4V.8h4.7v22.6H340M327 23.4V.8h5v22.6h-5M314.4 23.4V.8h4.8v22.6h-4.8M390.8 23.4V.8h4.8v22.6h-4.8M403.5 23.4V.8h5v22.6h-5M416.2 23.4V.8h5v22.6h-5M429 23.4V.8h4.8v22.6H429M441.7 23.4V.8h5v22.6h-5M378 205.3v-22.6h5v22.6h-5M365.3 205.3v-22.6h5v22.6h-5M352.6 205.3v-22.6h4.8v22.6h-4.8M340 205.3v-22.6h4.7v22.6H340M327 205.3v-22.6h5v22.6h-5M314.4 205.3v-22.6h4.8v22.6h-4.8M390.8 205.3v-22.6h4.8v22.6h-4.8M403.5 205.3v-22.6h5v22.6h-5M416.2 205.3v-22.6h5v22.6h-5M429 205.3v-22.6h4.8v22.6H429M441.7 205.3v-22.6h5v22.6h-5M278.2 105.5v-5H301v5H278M460 105.5v-5h22.7v5H460M278.2 118.2v-4.8H301v4.8H278M460 118.2v-4.8h22.7v4.8H460M460 131v-5h22.7v5H460M278.2 131v-5H301v5H278M278.2 143.7v-5H301v5H278M460 143.7v-5h22.7v5H460M460 156.4v-4.8h22.7v4.8H460M278.2 156.4v-4.8H301v4.8H278M278.2 169v-4.7H301v4.8H278M460 169v-4.7h22.7v4.8H460M460 92.7V88h22.7v4.7H460M278.2 92.7V88H301v4.7H278M278.2 80v-4.8H301V80H278M460 80v-4.8h22.7V80H460M460 67.3v-5h22.7v5H460M278.2 67.3v-5H301v5H278M278.2 54.6v-5H301v5H278M460 54.6v-5h22.7v5H460M460 41.8V37h22.7v4.8H460M278.2 41.8V37H301v4.8H278" stroke-width="1.5925479999999999"/></g><g stroke-width="64"><path d="M393.3 194v254.7M289.6 128.5h103.7M471.5 77.6h-78.2M393.3 194v-65.5M393.3 128.5v-51M393.3 77.6V12" stroke-width="2.4256"/></g><g stroke-width="256"><path d="M50.6 186l24.2 24.2M74.8 210.2h36.4M528.7 307.2l-.6.6M528 307.8v31.8M468 333.5v6M589.3 307.2L557 339.6M557 339.6h-29M528 339.6h-60M293 428.5l20.3 20.2M313.3 448.7h80M447.8 448.7l20.2-20.2M393.3 448.7h54.5M710.6 125.3V64.7M710.6 186v-60.7" stroke-width="9.7024"/></g><path d="M650 186l-.6.5" stroke-width="2.4256"/><g stroke-width="256"><path d="M649.4 186.5v21.7M710.6 186l-24.3 24.2M686.3 210.2h-97M589.3 307.2v-60.6M589.3 246.6v-36.4M589.3 210.2V186" stroke-width="9.7024"/></g><path d="M528.7 307.2l-2.6 2.6" stroke-width="2.4256"/><g stroke-width="256"><path d="M468 368v-28.4M468 333.5v-26.3M468 428.5V368" stroke-width="9.7024"/></g><g stroke-width="64"><path d="M677.2 428.5H468M84 428.5h209" stroke-width="2.4256"/></g><path d="M293 368v60.5" stroke-width="9.7024"/><path d="M232.5 307.2l.5.6" stroke-width="2.4256"/><path d="M233 307.8v31.8" stroke-width="9.7024"/><path d="M293 307.2l-1.4 1.5" stroke-width="2.4256"/><g stroke-width="256"><path d="M291.6 308.7v31M171.8 246.6v60.6" stroke-width="9.7024"/></g><g stroke-width="64"><path d="M171.8 307.2h.6M291.6 366.4l1.5 1.5" stroke-width="2.4256"/></g><g stroke-width="256"><path d="M291.6 339.6v26.8M204.7 339.6H233M233 339.6h58.6M172.4 307.2l32.3 32.4M111.2 186v24.2" stroke-width="9.7024"/></g><path d="M111.2 210.2h.5" stroke-width="2.4256"/><path d="M111.7 210.2h60.5" stroke-width="9.7024"/><path d="M172.2 210.2l-.6.5" stroke-width="2.4256"/><g stroke-width="256"><path d="M171.8 186l-.2 24.7M171.6 210.7l.2 36M50.6 125.3V186M50.6 64.7v60.6" stroke-width="9.7024"/></g><g stroke-width="64"><path d="M677.2 64.7v16.7M645.6 113H605M677.2 81.4L645.6 113M355 194l-.6.8M354.4 194.8v39.7M354.4 234.5l.7-.8M730.3 412.3L714 428.5M614 100.2l55.6-55.7M669.6 44.5h56.6M726.2 44.5l14.2 14M740.4 58.6v343.6M740.4 402.2l-10 10M605 100.2h9M714 428.5h-3.4" stroke-width="2.4256"/></g><path d="M326.5 307.2l2.4-2.4" stroke-width="4.0439300000000005"/><g stroke-width="64"><path d="M329 304.8v-46M326.5 368l15-15.2M341.6 352.8v-94M495.3 307.2l-14.2-14M445 282.7v-24M455.4 293L445 282.8M481 293h-25.6M434.6 428.5l-27.8-27.8M406.8 400.7v-142M326.5 428.5l28-27.8M354.4 400.7v-142M144.6 186v-8.7M245 258.7h20.3M225 238.5l20 20.2M225 178v60.5M219 171.8l6 6M150 171.8h69M144.6 177.3l5.5-5.5M85.5 171.8l33.4-33.5M119 138.3h47.3M85.5 182v-10.2M85.5 171.8v-.5M50.6 428.5l-23.8-23.7M157.3 100.2h9M101.6 44.5l55.7 55.7M37 44.5h64.6M26.8 54.6l10-10M26.8 404.8V54.6M556 307.2v-8.6M457.7 279.2v-20.5M465.5 287l-7.8-7.8M544.3 287h-78.8M556 298.6L544.2 287M434.6 307.2l-2.4-2.4M432.2 304.8v-46M434.6 368l-15-15.2M419.5 352.8v-94M84 125.3l.2.3M84.2 125.6h82M205.2 186l13.7 13.6M278 270.3v-11.6M273.4 275l4.6-4.7M223.7 275h49.7M219 270l4.7 5M219 199.6V270M205.2 246.6v23.2M290.7 273.8v-15M283.5 281l7.2-7.2M216.4 281h67M205.2 269.8l11.2 11.2M205.2 307.2v-10.6M303.5 279.2v-20.5M296.5 286.2l7-7M215.6 286.2h81M205.2 296.6l10.4-10.4M266 307.2v-8.6M316.2 284.7v-26M309.8 291l6.4-6.3M273.4 291h36.4M266 298.6l7.4-7.5M501.8 204L483 223M501.8 204v-58.5M501.8 145.5l-17-17M471.5 128.5H485M483 223v11.5M470.5 223.3v.2M470.4 223.5v11M471.5 141.3h12M495.8 198l-25.3 25.3M495.8 153.6V198M483.5 141.3l12.3 12.3M166.3 113h-46.8M84 77.3V64.7M119.5 113L84 77.2M457.7 234.5V222M457.7 222l32-32M489.7 190v-30.3M489.7 159.7L484 154M484 154h-12.5M445.3 220.3l-.3.3M445 220.6v14M471.5 194v-27.2M445.3 220.3l26.2-26.3M471.5 52h13.8M546 113h34.7M485.3 52l60.7 61M471.5 103H512M547.2 138.3h33.5M512 103l35.2 35.3M580.7 125.6h-34M511.3 90.3h-39.8M546.6 125.6l-35.3-35.3M432.2 234.5v-13.3M444.2 209.2l-12 12M444.2 209.2V194M471.5 39.4h13.2M545.4 100.2h35.3M484.7 39.4l60.7 60.8M496 234.5v-12.2M482.2 115.8l25.7 25.7M508 141.5v68.7M508 210.2l-12 12M482.2 115.8h-10.7M290.6 195v.2M290.7 195.2v39.3M289.6 154H275M273.4 178l17.2 17M273.4 155.6V178M275 154l-1.6 1.6M289.6 77.6h-41.2M200.4 125.6h-9.8M248.4 77.6l-48 48M605 125.6h72M677 125.6l.2-.3M190.6 138.3h9.2M247.8 90.3h41.8M199.8 138.3l48-48M265.3 234.5V190M257.3 119.2V182M257.3 182l4 4M273.4 103h16.2M261.3 115.2l12-12M265.3 190l-4-4M261.3 115.2l-4 4M278 234.5v-42M265.4 180v-54.7M265.4 125.3l2-2M275 115.8h14.6M267.4 123.3l7.5-7.5M278 192.5L267.4 182M267.4 182l-2-2M303.5 234.5v-36.7M303.5 197.8l-14-14M289.6 184v-17.2M316.2 234.5l.7-.8M317 233.7V194M329.6 194l-.7.8M329 194.8v39.7M329 234.5l.6-.8M406.8 220.4v14M418.8 208.4V194M406.8 220.3l12-12M419.5 234.5v-12.7M419.5 221.8l12-12M431.5 209.8V194M190.6 100.2h9M247.6 52h42M199.5 100.2l48-48M190.6 113H201M249 65h40.6M201 113l48-48M677.2 186v-18.8M648.3 138.3H605M677.2 167.2l-29-29M616.5 186v-10.7M522 258.7h-26M535.4 245.4L522 258.7M535.4 176.7v68.7M540.3 171.8l-5 5M613 171.8h-72.7M616.5 175.3l-3.5-3.5M556 186l-15.7 15.6M483 270.3v-11.6M487.7 275l-4.6-4.7M530 275h-42.3M540.3 264.8l-10.2 10M540.3 201.6v63.2M556 246.6v20.7M470.4 275.8v-17M475.6 281l-5.2-5.2M542.3 281h-66.7M556 267.3L542.2 281M341.6 234.5l.8-.8M342.4 233.7V194" stroke-width="2.4256"/></g></g><g fill="none" stroke="#e70000" stroke-width="21.5" stroke-linecap="square" stroke-linejoin="round"><path d="M68 66v121h121v121h121v121H10.8M693.6 66v121h-121v121h-121v121H751"/></g></svg>